<svg width="35" height="28" viewBox="0 0 35 28" fill="none" xmlns="http://www.w3.org/2000/svg">
<path d="M7.87501 6.99988H1.45833C1.0717 7.00023 0.701021 7.12326 0.427627 7.34198C0.154232 7.56069 0.000443869 7.85723 0 8.16654V26.8332C0.000443869 27.1425 0.154232 27.4391 0.427627 27.6578C0.701021 27.8765 1.0717 27.9995 1.45833 27.9999H7.87501C8.26165 27.9995 8.63232 27.8765 8.90572 27.6578C9.17911 27.4391 9.3329 27.1425 9.33334 26.8332V8.16654C9.3329 7.85723 9.17911 7.56069 8.90572 7.34198C8.63232 7.12326 8.26165 7.00023 7.87501 6.99988ZM7.00001 26.1332H2.33334V8.86654H7.00001V26.1332Z" fill="white"/>
<path d="M20.7083 13.0667H14.2916C13.905 13.067 13.5343 13.19 13.2609 13.4088C12.9875 13.6275 12.8338 13.924 12.8333 14.2333V26.8333C12.8338 27.1426 12.9875 27.4392 13.2609 27.6579C13.5343 27.8766 13.905 27.9996 14.2916 28H20.7083C21.095 27.9996 21.4656 27.8766 21.739 27.6579C22.0124 27.4392 22.1662 27.1426 22.1667 26.8333V14.2333C22.1662 13.924 22.0124 13.6275 21.739 13.4088C21.4656 13.19 21.095 13.067 20.7083 13.0667ZM19.8333 26.1333H15.1666V14.9333H19.8333V26.1333Z" fill="white"/>
<path d="M33.5417 0H27.125C26.7384 0.000355095 26.3677 0.123385 26.0943 0.342101C25.8209 0.560816 25.6671 0.857356 25.6667 1.16667V26.8333C25.6671 27.1426 25.8209 27.4392 26.0943 27.6579C26.3677 27.8766 26.7384 27.9996 27.125 28H33.5417C33.9283 27.9996 34.299 27.8766 34.5724 27.6579C34.8458 27.4392 34.9996 27.1426 35 26.8333V1.16667C34.9996 0.857356 34.8458 0.560816 34.5724 0.342101C34.299 0.123385 33.9283 0.000355095 33.5417 0ZM32.6667 26.1333H28V1.86667H32.6667V26.1333Z" fill="white"/>
</svg>
