<svg width="190" height="80" viewBox="0 0 190 80" fill="none" xmlns="http://www.w3.org/2000/svg">
<path d="M189.24 4.13134C188.276 2.50313 186.432 1.20925 184.112 0.533075C182.97 0.191634 181.744 0.0105282 180.503 0H133.017C130.498 0 128.082 0.702041 126.301 1.95168C124.52 3.20132 123.519 4.89619 123.519 6.66345C123.519 8.4307 124.52 10.1256 126.301 11.3752C128.082 12.6249 130.498 13.3269 133.017 13.3269H157.614L104.525 50.5756L73.2788 28.5862C72.3959 27.9616 71.3455 27.4659 70.1882 27.1276C69.0309 26.7893 67.7895 26.6152 66.5358 26.6152C65.282 26.6152 64.0407 26.7893 62.8834 27.1276C61.726 27.4659 60.6756 27.9616 59.7927 28.5862L2.80927 68.5669C1.91911 69.1863 1.21257 69.9233 0.730404 70.7353C0.248241 71.5473 0 72.4183 0 73.2979C0 74.1776 0.248241 75.0485 0.730404 75.8605C1.21257 76.6725 1.91911 77.4095 2.80927 78.029C3.69216 78.6535 4.74257 79.1492 5.8999 79.4875C7.05722 79.8258 8.29857 80 9.55232 80C10.8061 80 12.0474 79.8258 13.2047 79.4875C14.3621 79.1492 15.4125 78.6535 16.2954 78.029L66.5358 42.7127L97.7817 64.7021C98.6646 65.3266 99.715 65.8223 100.872 66.1606C102.03 66.4989 103.271 66.6731 104.525 66.6731C105.779 66.6731 107.02 66.4989 108.177 66.1606C109.335 65.8223 110.385 65.3266 111.268 64.7021L171.006 22.7224V39.9807C171.006 41.7479 172.006 43.4428 173.787 44.6924C175.568 45.9421 177.984 46.6441 180.503 46.6441C183.022 46.6441 185.437 45.9421 187.218 44.6924C188.999 43.4428 190 41.7479 190 39.9807V6.66345C189.985 5.79269 189.727 4.93243 189.24 4.13134Z" fill="url(#paint0_linear_828_25)"/>
<defs>
<linearGradient id="paint0_linear_828_25" x1="177.786" y1="5.86667" x2="5.28268" y2="96.1939" gradientUnits="userSpaceOnUse">
<stop stop-color="#5145DE"/>
<stop offset="1" stop-color="#0E9CFF"/>
</linearGradient>
</defs>
</svg>
