<svg width="28" height="25" viewBox="0 0 28 25" fill="none" xmlns="http://www.w3.org/2000/svg">
<path fill-rule="evenodd" clip-rule="evenodd" d="M19.2558 6.21719L21.6338 3.11342C19.4352 3.23034 16.7761 3.69139 14.2248 4.35037C12.4912 4.79819 10.5606 4.73062 8.76561 4.43494C8.20029 4.34181 7.64337 4.22519 7.10416 4.09256L8.71934 6.21562C12.0174 7.30262 15.9572 7.30312 19.2558 6.21719ZM7.89705 7.27281C11.6915 8.61781 16.2925 8.61737 20.0865 7.27156C21.6291 8.70044 23.2225 10.4786 24.4502 12.3385C25.7338 14.2829 26.5439 16.2059 26.5972 17.8577C26.6476 19.4209 26.0325 20.7676 24.2999 21.8016C22.4637 22.8973 19.2641 23.7027 14.0168 23.7481C8.76799 23.7934 5.56353 23.0425 3.72213 21.9796C1.98923 20.9792 1.3622 19.6471 1.40171 18.0751C1.44349 16.4134 2.24433 14.4627 3.52509 12.4772C4.74775 10.5817 6.34158 8.75644 7.89705 7.27281ZM6.7634 2.69968C7.48251 2.90179 8.24432 3.07794 9.01964 3.20566C10.698 3.48217 12.3891 3.52329 13.8358 3.14962C15.6743 2.67472 17.6044 2.2899 19.4131 2.06194C17.8697 1.60828 16.0038 1.25 14.0303 1.25C11.182 1.25 8.53776 1.99621 6.7634 2.69968ZM5.42283 1.88269C7.31626 1.03591 10.5174 0 14.0303 0C17.4781 0 20.6015 0.997894 22.4867 1.83546C22.5184 1.84952 22.5497 1.86354 22.5807 1.87752C23.0887 2.10674 23.5015 2.32231 23.8 2.5L20.9269 6.25C27.5502 12.2954 35.4551 24.8131 14.0303 24.998C-7.39449 25.1829 0.372217 12.5266 7.05306 6.25L4.2 2.5C4.39964 2.38285 4.6494 2.24924 4.94354 2.10609C5.09222 2.03376 5.25217 1.95899 5.42283 1.88269Z" fill="white"/>
<path d="M12.8021 10.625H15.198V11.625H17.5938V13.625H12.8021L12.6943 13.633C12.5562 13.6539 12.4313 13.7146 12.3413 13.8045C12.2514 13.8944 12.202 14.0079 12.202 14.125C12.202 14.2421 12.2514 14.3556 12.3413 14.4455C12.4313 14.5354 12.5562 14.5961 12.6943 14.617L12.8021 14.625H15.198L15.3944 14.63C16.1714 14.6711 16.8987 14.9631 17.4221 15.4441C17.9455 15.9252 18.224 16.5575 18.1984 17.2071C18.1729 17.8566 17.8454 18.4723 17.2853 18.9236C16.7251 19.3751 15.9765 19.6266 15.198 19.625V20.625H12.8021V19.625H10.4063V17.625H15.198L15.3058 17.617C15.4439 17.5961 15.5688 17.5354 15.6588 17.4455C15.7487 17.3556 15.7981 17.2421 15.7981 17.125C15.7981 17.0079 15.7487 16.8944 15.6588 16.8045C15.5688 16.7146 15.4439 16.6539 15.3058 16.633L15.198 16.625H12.8021L12.6057 16.62C11.8287 16.5789 11.1014 16.2869 10.578 15.8059C10.0546 15.3248 9.77611 14.6925 9.80166 14.0429C9.82721 13.3934 10.1547 12.7777 10.7148 12.3264C11.275 11.8749 12.0236 11.6234 12.8021 11.625V10.625Z" fill="white"/>
</svg>
