<svg width="28" height="25" viewBox="0 0 28 25" fill="none" xmlns="http://www.w3.org/2000/svg">
<path fill-rule="evenodd" clip-rule="evenodd" d="M10 14.2857C11.1046 14.2857 12 15.0852 12 16.0714V23.2143C12 24.2005 11.1046 25 10 25H2C0.89544 25 0 24.2005 0 23.2143V16.0714C0 15.0852 0.89544 14.2857 2 14.2857H10ZM26 21.4286C27.1046 21.4286 28 22.228 28 23.2143C28 24.2005 27.1046 25 26 25H18C16.8954 25 16 24.2005 16 23.2143C16 22.228 16.8954 21.4286 18 21.4286H26ZM8 17.8571H4V21.4286H8V17.8571ZM26 14.2857C27.1046 14.2857 28 15.0852 28 16.0714C28 17.0577 27.1046 17.8571 26 17.8571H18C16.8954 17.8571 16 17.0577 16 16.0714C16 15.0852 16.8954 14.2857 18 14.2857H26ZM10 0C11.1046 0 12 0.7995 12 1.78571V8.92857C12 9.91479 11.1046 10.7143 10 10.7143H2C0.89544 10.7143 0 9.91479 0 8.92857V1.78571C0 0.7995 0.89544 0 2 0H10ZM26 7.14286C27.1046 7.14286 28 7.94236 28 8.92857C28 9.84434 27.2279 10.5991 26.2332 10.7023L26 10.7143H18C16.8954 10.7143 16 9.91479 16 8.92857C16 8.0128 16.7721 7.25802 17.7668 7.15487L18 7.14286H26ZM8 3.57143H4V7.14286H8V3.57143ZM26 0C27.1046 0 28 0.7995 28 1.78571C28 2.77193 27.1046 3.57143 26 3.57143H18C16.8954 3.57143 16 2.77193 16 1.78571C16 0.7995 16.8954 0 18 0H26Z" fill="white"/>
</svg>
