<svg width="20" height="30" viewBox="0 0 20 30" fill="none" xmlns="http://www.w3.org/2000/svg">
<path d="M19.2857 1.87501H13.9286L13.5089 0.779307C13.42 0.545057 13.2831 0.348012 13.1135 0.210337C12.944 0.0726631 12.7485 -0.00017742 12.5491 1.02731e-05H7.44643C7.24749 -0.000993469 7.05236 0.0715755 6.8834 0.209403C6.71443 0.34723 6.57846 0.544741 6.49107 0.779307L6.07143 1.87501H0.714286C0.524845 1.87501 0.343164 1.97378 0.209209 2.1496C0.0752549 2.32541 0 2.56387 0 2.81251L0 4.68751C0 4.93615 0.0752549 5.17461 0.209209 5.35042C0.343164 5.52624 0.524845 5.62501 0.714286 5.62501H19.2857C19.4752 5.62501 19.6568 5.52624 19.7908 5.35042C19.9247 5.17461 20 4.93615 20 4.68751V2.81251C20 2.56387 19.9247 2.32541 19.7908 2.1496C19.6568 1.97378 19.4752 1.87501 19.2857 1.87501ZM2.375 27.3633C2.40907 28.0773 2.64918 28.7475 3.04645 29.2373C3.44373 29.7272 3.9683 29.9999 4.51339 30H15.4866C16.0317 29.9999 16.5563 29.7272 16.9535 29.2373C17.3508 28.7475 17.5909 28.0773 17.625 27.3633L18.5714 7.50001H1.42857L2.375 27.3633Z" fill="#E0115F"/>
</svg>
