<svg width="70" height="70" viewBox="0 0 70 70" fill="none" xmlns="http://www.w3.org/2000/svg">
<rect width="70" height="70" rx="10" fill="#E7B36E"/>
<path d="M45.8984 32.2274C46.4323 33.1441 46.8294 34.099 47.0898 35.092C47.3503 36.0851 47.487 37.11 47.5 38.1667V40.1337L35 46.2639L22.5 40.1337C22.5 39.3698 22.5065 38.6568 22.5195 37.9948C22.5326 37.3328 22.5911 36.6898 22.6953 36.066C22.7995 35.4421 22.9557 34.8183 23.1641 34.1944C23.3724 33.5706 23.6849 32.9149 24.1016 32.2274L20 30.2222V41.4323C20.3776 41.5596 20.7161 41.7378 21.0156 41.967C21.3151 42.1962 21.582 42.4635 21.8164 42.7691C22.0508 43.0747 22.2201 43.4057 22.3242 43.7622C22.4284 44.1186 22.487 44.4942 22.5 44.8889V51H15V44.8889C15 44.5069 15.0586 44.1377 15.1758 43.7812C15.293 43.4248 15.4622 43.0874 15.6836 42.7691C15.9049 42.4508 16.1654 42.1834 16.4648 41.967C16.7643 41.7506 17.1094 41.5723 17.5 41.4323V29L15 27.7778L35 18L55 27.7778L45.8984 32.2274ZM20 44.8889C20 44.5579 19.8763 44.2714 19.6289 44.0295C19.3815 43.7876 19.0885 43.6667 18.75 43.6667C18.4115 43.6667 18.1185 43.7876 17.8711 44.0295C17.6237 44.2714 17.5 44.5579 17.5 44.8889V48.5556H20V44.8889ZM20.5859 27.7778L35 34.8247L49.4141 27.7778L35 20.7309L20.5859 27.7778ZM45 38.625C45 37.6447 44.9023 36.7344 44.707 35.8941C44.5117 35.0538 44.1667 34.1944 43.6719 33.316L35 37.5556L26.3281 33.316C25.8984 34.0544 25.5729 34.831 25.3516 35.6458C25.1302 36.4606 25.013 37.3009 25 38.1667V38.625L35 43.5139L45 38.625Z" fill="white"/>
</svg>
