<svg width="32" height="29" viewBox="0 0 32 29" fill="none" xmlns="http://www.w3.org/2000/svg">
<path d="M18.8 8.25V4.5C18.8 3.83696 18.505 3.20107 17.9799 2.73223C17.4548 2.26339 16.7426 2 16 2H4.8C4.05739 2 3.3452 2.26339 2.8201 2.73223C2.295 3.20107 2 3.83696 2 4.5V24.5C2 25.163 2.295 25.7989 2.8201 26.2678C3.3452 26.7366 4.05739 27 4.8 27H16C16.7426 27 17.4548 26.7366 17.9799 26.2678C18.505 25.7989 18.8 25.163 18.8 24.5V20.75" stroke="white" stroke-width="3" stroke-linecap="round" stroke-linejoin="round"/>
<path d="M13.2 14.5H29.9999" stroke="white" stroke-width="3" stroke-linecap="round" stroke-linejoin="round"/>
<path d="M24.4 9.5L30 14.5L24.4 19.5" stroke="white" stroke-width="3" stroke-linecap="round" stroke-linejoin="round"/>
</svg>
