<svg width="70" height="70" viewBox="0 0 70 70" fill="none" xmlns="http://www.w3.org/2000/svg">
<rect width="70" height="70" rx="10" fill="#29AD79"/>
<path fill-rule="evenodd" clip-rule="evenodd" d="M21.0776 46.1666V51.1666C21.0776 51.8297 21.2858 52.4656 21.6564 52.9344C22.0269 53.4032 22.5295 53.6666 23.0535 53.6666H52.691C53.215 53.6666 53.7175 53.4032 54.0881 52.9344C54.4586 52.4656 54.6668 51.8297 54.6668 51.1666V31.1666C54.6668 30.5036 54.4586 29.8677 54.0881 29.3989C53.7175 28.93 53.215 28.6666 52.691 28.6666H50.2311V33.2529C50.5018 33.7639 50.8678 34.1826 51.2969 34.4719C51.726 34.7612 52.2048 34.9122 52.691 34.9116V47.4166C51.9078 47.4222 51.1583 47.8198 50.6061 48.5225C50.0539 49.2251 49.744 50.1757 49.744 51.1666H26.0123C26.0019 50.1814 25.6857 49.2408 25.1319 48.5481C24.5781 47.8554 23.8312 47.466 23.0525 47.4641V46.1666H21.0776Z" fill="white"/>
<path d="M35.4131 31.1666C35.4131 32.4927 34.9968 33.7645 34.2557 34.7022C33.5146 35.6398 32.5095 36.1666 31.4614 36.1666C30.4134 36.1666 29.4083 35.6398 28.6672 34.7022C27.9261 33.7645 27.5098 32.4927 27.5098 31.1666C27.5098 29.8405 27.9261 28.5688 28.6672 27.6311C29.4083 26.6934 30.4134 26.1666 31.4614 26.1666C32.5095 26.1666 33.5146 26.6934 34.2557 27.6311C34.9968 28.5688 35.4131 29.8405 35.4131 31.1666Z" fill="white"/>
<path fill-rule="evenodd" clip-rule="evenodd" d="M16.6428 18.6666C16.1188 18.6666 15.6162 18.93 15.2457 19.3989C14.8752 19.8677 14.667 20.5036 14.667 21.1666V41.1666C14.667 41.8297 14.8752 42.4656 15.2457 42.9344C15.6162 43.4032 16.1188 43.6666 16.6428 43.6666H46.2803C46.8043 43.6666 47.3069 43.4032 47.6774 42.9344C48.048 42.4656 48.2561 41.8297 48.2561 41.1666V21.1666C48.2561 20.5036 48.048 19.8677 47.6774 19.3989C47.3069 18.93 46.8043 18.6666 46.2803 18.6666H16.6428ZM19.6046 21.1666H43.3175C43.3183 22.1602 43.6308 23.1128 44.1864 23.815C44.7419 24.5172 45.495 24.9116 46.2803 24.9116V37.4166C45.497 37.4216 44.7472 37.8189 44.1949 38.5217C43.6426 39.2245 43.3328 40.1755 43.3334 41.1666H19.6026C19.5928 40.1812 19.2767 39.2403 18.7228 38.5474C18.1689 37.8545 17.4217 37.4654 16.6428 37.4641V24.9166C17.0319 24.9166 17.4172 24.8196 17.7767 24.6311C18.1362 24.4426 18.4628 24.1664 18.7378 23.8181C19.0129 23.4699 19.231 23.0565 19.3797 22.6015C19.5284 22.1465 19.6049 21.659 19.6046 21.1666Z" fill="white"/>
</svg>
