<svg width="28" height="25" viewBox="0 0 28 25" fill="none" xmlns="http://www.w3.org/2000/svg">
<path d="M9.33333 0C9.74589 0 10.1416 0.138627 10.4333 0.385386C10.725 0.632144 10.8889 0.96682 10.8889 1.31579V2.63158H17.1111V1.31579C17.1111 0.96682 17.275 0.632144 17.5667 0.385386C17.8584 0.138627 18.2541 0 18.6667 0C19.0792 0 19.4749 0.138627 19.7666 0.385386C20.0583 0.632144 20.2222 0.96682 20.2222 1.31579V2.63158H24.8889C25.714 2.63158 26.5053 2.90883 27.0888 3.40235C27.6722 3.89587 28 4.56522 28 5.26316V22.3684C28 23.0664 27.6722 23.7357 27.0888 24.2292C26.5053 24.7227 25.714 25 24.8889 25H3.11111C2.28599 25 1.49467 24.7227 0.911223 24.2292C0.327777 23.7357 0 23.0664 0 22.3684V5.26316C0 4.56522 0.327777 3.89587 0.911223 3.40235C1.49467 2.90883 2.28599 2.63158 3.11111 2.63158H7.77778V1.31579C7.77778 0.96682 7.94167 0.632144 8.23339 0.385386C8.52511 0.138627 8.92077 0 9.33333 0ZM7.77778 5.26316H3.11111V9.21053H24.8889V5.26316H20.2222V6.57895C20.2222 6.92792 20.0583 7.26259 19.7666 7.50935C19.4749 7.75611 19.0792 7.89474 18.6667 7.89474C18.2541 7.89474 17.8584 7.75611 17.5667 7.50935C17.275 7.26259 17.1111 6.92792 17.1111 6.57895V5.26316H10.8889V6.57895C10.8889 6.92792 10.725 7.26259 10.4333 7.50935C10.1416 7.75611 9.74589 7.89474 9.33333 7.89474C8.92077 7.89474 8.52511 7.75611 8.23339 7.50935C7.94167 7.26259 7.77778 6.92792 7.77778 6.57895V5.26316ZM24.8889 11.8421H3.11111V22.3684H24.8889V11.8421Z" fill="white"/>
</svg>
