<svg width="70" height="70" viewBox="0 0 70 70" fill="none" xmlns="http://www.w3.org/2000/svg">
<rect width="70" height="70" rx="10" fill="#986BF7"/>
<path d="M29.0083 50C28.1826 50 27.4754 49.706 26.8869 49.118C26.2983 48.53 26.0045 47.824 26.0055 47C26.0055 46.175 26.2998 45.4685 26.8884 44.8805C27.4769 44.2925 28.1836 43.999 29.0083 44C29.8341 44 30.5412 44.294 31.1298 44.882C31.7183 45.47 32.0121 46.176 32.0111 47C32.0111 47.825 31.7168 48.5315 31.1283 49.1195C30.5397 49.7075 29.8331 50.001 29.0083 50ZM44.0222 50C43.1964 50 42.4893 49.706 41.9007 49.118C41.3122 48.53 41.0184 47.824 41.0194 47C41.0194 46.175 41.3137 45.4685 41.9022 44.8805C42.4908 44.2925 43.1974 43.999 44.0222 44C44.848 44 45.5551 44.294 46.1437 44.882C46.7322 45.47 47.026 46.176 47.025 47C47.025 47.825 46.7307 48.5315 46.1422 49.1195C45.5536 49.7075 44.847 50.001 44.0222 50ZM27.7321 26L31.3355 33.5H41.8452L45.974 26H27.7321ZM26.3058 23H48.4513C49.0268 23 49.4647 23.2565 49.765 23.7695C50.0653 24.2825 50.0778 24.801 49.8025 25.325L44.4726 34.925C44.1974 35.425 43.828 35.8125 43.3646 36.0875C42.9012 36.3625 42.3947 36.5 41.8452 36.5H30.6598L29.0083 39.5H47.025V42.5H29.0083C27.8823 42.5 27.0315 42.006 26.456 41.018C25.8804 40.03 25.8554 39.049 26.3809 38.075L28.4078 34.4L23.0028 23H20V20H24.8795L26.3058 23Z" fill="white"/>
</svg>
