<svg width="70" height="70" viewBox="0 0 70 70" fill="none" xmlns="http://www.w3.org/2000/svg">
<rect width="70" height="70" rx="10" fill="#FB9393"/>
<path d="M35 20C31.0218 20 27.2064 21.4972 24.3934 24.1622C21.5804 26.8272 20 30.4417 20 34.2105V45.2632C20 47.8842 22.2333 50 25 50H30V37.3684H23.3333V34.2105C23.3333 28.1 28.55 23.1579 35 23.1579C41.45 23.1579 46.6667 28.1 46.6667 34.2105V37.3684H40V50H45C47.7667 50 50 47.8842 50 45.2632V34.2105C50 30.4417 48.4196 26.8272 45.6066 24.1622C42.7936 21.4972 38.9782 20 35 20Z" fill="white"/>
</svg>
